<?xml version="1.0" encoding="utf-8"?>
<!-- Generator: Adobe Illustrator 21.0.0, SVG Export Plug-In . SVG Version: 6.00 Build 0)  -->
<svg version="1.1" id="_x31_" xmlns="http://www.w3.org/2000/svg" xmlns:xlink="http://www.w3.org/1999/xlink" x="0px" y="0px"
	 viewBox="0 0 273.6 71.9" style="enable-background:new 0 0 273.6 71.9;" xml:space="preserve">
<style type="text/css">
	.st0{fill:none;}
	.st1{fill:#37424A;}
	.st2{fill:#00877C;}
</style>
<g>
	<rect x="-32.7" y="-32.7" class="st0" width="339" height="137.4"/>
	<g>
		<path class="st1" d="M120,71.9V60.5h2.2v11.4H120z M131.8,71.9l-4.5-7v7H125V60.5h2l4.5,7v-7h2.2v11.4H131.8z M140.8,71.9h-1.7
			l-3.8-11.4h2.3l2.3,7.4l2.3-7.4h2.3L140.8,71.9z M146.1,71.9V60.5h7.5v2h-5.3v2.7h4.5v2h-4.5v2.8h5.3v2H146.1z M162.7,71.9l-4.5-7
			v7H156V60.5h2l4.5,7v-7h2.2v11.4H162.7z M171.9,62.5v9.4h-2.2v-9.4h-3v-2h8.2v2H171.9z M176.8,71.9V60.5h2.2v11.4H176.8z
			 M188.7,71.9l-4.5-7v7h-2.2V60.5h2l4.5,7v-7h2.2v11.4H188.7z M200.5,70.7c-0.9,1-2,1.3-3.2,1.3c-1.3,0-2.3-0.4-3-1.2
			c-1.1-1.1-1.2-2.4-1.2-4.6c0-2.2,0-3.5,1.2-4.6c0.8-0.8,1.7-1.2,3-1.2c2.7,0,4,1.7,4.3,3.7h-2.2c-0.3-1.1-0.9-1.7-2.1-1.7
			c-0.6,0-1.1,0.2-1.4,0.6c-0.4,0.5-0.5,1-0.5,3.2c0,2.2,0.1,2.7,0.5,3.2c0.3,0.4,0.8,0.6,1.4,0.6c0.7,0,1.2-0.2,1.6-0.6
			c0.4-0.4,0.5-0.9,0.5-1.5v-0.4h-2.1v-1.9h4.3v1.7C201.6,68.9,201.4,69.8,200.5,70.7z M209.6,61.2v4.7h5.2v0.8h-5.2v5.2h-0.9V60.5
			h6.9v0.8H209.6z M224.1,70.9c-0.7,0.7-1.6,1.1-2.8,1.1c-1.1,0-2.1-0.4-2.8-1.1c-1.1-1.1-1.1-1.9-1.1-4.7c0-2.8,0.1-3.7,1.1-4.7
			c0.7-0.7,1.6-1.1,2.8-1.1c1.1,0,2.1,0.4,2.8,1.1c1.1,1.1,1.1,1.9,1.1,4.7C225.2,69,225.1,69.8,224.1,70.9z M223.5,62
			c-0.6-0.6-1.3-0.9-2.2-0.9c-0.8,0-1.6,0.3-2.2,0.9c-0.8,0.8-0.9,1.7-0.9,4.2c0,2.4,0.1,3.3,0.9,4.2c0.6,0.6,1.3,0.9,2.2,0.9
			c0.8,0,1.6-0.3,2.2-0.9c0.8-0.8,0.9-1.8,0.9-4.2C224.3,63.8,224.3,62.8,223.5,62z M235.2,71.9l-2.7-5.3h-3.1v5.3h-0.9V60.5h4.3
			c1.9,0,3.3,1.1,3.3,3.1c0,1.7-1,2.8-2.6,3.1l2.8,5.3H235.2z M232.7,61.2h-3.4v4.6h3.4c1.5,0,2.5-0.7,2.5-2.3
			C235.2,62,234.2,61.2,232.7,61.2z M243.4,71.9V60.5h0.9v10.7h6.1v0.8H243.4z M252.7,71.9V60.5h0.9v11.4H252.7z M258.2,61.2v4.7
			h5.2v0.8h-5.2v5.2h-0.9V60.5h6.9v0.8H258.2z M266.7,71.9V60.5h6.9v0.8h-6.1v4.5h5.2v0.8h-5.2v4.6h6.1v0.8H266.7z M106.3,16.3h10.1
			V49h-7.5v-22l-9.6,22L89.2,27v22h-7V16.3h10l7.2,16.9L106.3,16.3z M143.1,26c0-6.5-5-10.2-10.9-10.2c-5.9,0-12.3,3.4-12.3,10.1
			c0,5.8,6.4,8.8,10,9.7c2,0.5,7.1,1.1,7.1,4.7c0,3.4-3.5,4.4-6.2,4.4c-3.4,0-5.4-2.4-5.1-6H119c-0.2,8.1,5.3,11.2,11.8,11.3
			c7.5,0.2,13.2-3,13.2-10.2c0-7.2-6.5-8.4-11.5-10c-2-0.6-5.6-1.2-5.6-4.5c0-2.8,2.4-4.1,4.9-4.1c3.2,0,4.8,1.6,5.1,4.8H143.1
			 M157.2,16.3h-10.4V49h10.4c8.7,0,17.4-5,17.4-16.3C174.7,21.4,165.9,16.3,157.2,16.3z M156.8,43l-2.9,0v0V22.3h2.9
			c7.9,0,10.8,5.2,10.8,10.4S164.7,43,156.8,43z"/>
		<path id="XMLID_26_" class="st2" d="M16.3,16.3c0-9,7.3-16.3,16.3-16.3C41.7,0,49,7.3,49,16.3H16.3z M16.3,49
			c0-9,7.3-16.3,16.3-16.3c-9,0-16.3-7.3-16.3-16.3C7.3,16.3,0,23.7,0,32.7C0,41.7,7.3,49,16.3,49z M16.3,49c0,9,7.3,16.3,16.3,16.3
			c9,0,16.3-7.3,16.3-16.3H16.3z M32.7,32.7C41.7,32.7,49,40,49,49c9,0,16.3-7.3,16.3-16.3c0-9-7.3-16.3-16.3-16.3
			C49,25.4,41.7,32.7,32.7,32.7z"/>
	</g>
</g>
</svg>
